<mxfile host="app.diagrams.net" modified="2023-01-27T09:01:34.292Z" agent="5.0 (X11)" etag="kaC7CSAiozvguiUAROEF" version="20.8.13" type="gitlab">
  <diagram name="Page-1" id="Vfwr5uenpk2pbD5P71Gp">
    <mxGraphModel dx="2322" dy="1862" grid="1" gridSize="10" guides="1" tooltips="1" connect="1" arrows="1" fold="1" page="1" pageScale="1" pageWidth="850" pageHeight="1100" math="0" shadow="0">
      <root>
        <mxCell id="0" />
        <mxCell id="1" parent="0" />
        <mxCell id="vQ33bp7E2cLdNLxbvYFG-9" style="edgeStyle=orthogonalEdgeStyle;rounded=0;orthogonalLoop=1;jettySize=auto;html=1;entryX=0;entryY=0.5;entryDx=0;entryDy=0;" edge="1" parent="1" source="vQ33bp7E2cLdNLxbvYFG-1" target="vQ33bp7E2cLdNLxbvYFG-4">
          <mxGeometry relative="1" as="geometry">
            <mxPoint x="100" y="200" as="targetPoint" />
          </mxGeometry>
        </mxCell>
        <mxCell id="vQ33bp7E2cLdNLxbvYFG-1" value="Actor" style="shape=umlActor;verticalLabelPosition=bottom;verticalAlign=top;html=1;outlineConnect=0;" vertex="1" parent="1">
          <mxGeometry x="40" y="170" width="30" height="60" as="geometry" />
        </mxCell>
        <mxCell id="vQ33bp7E2cLdNLxbvYFG-10" style="edgeStyle=orthogonalEdgeStyle;rounded=0;orthogonalLoop=1;jettySize=auto;html=1;entryX=0.537;entryY=-0.049;entryDx=0;entryDy=0;entryPerimeter=0;" edge="1" parent="1" source="vQ33bp7E2cLdNLxbvYFG-4" target="vQ33bp7E2cLdNLxbvYFG-5">
          <mxGeometry relative="1" as="geometry">
            <mxPoint x="330" y="300" as="targetPoint" />
          </mxGeometry>
        </mxCell>
        <mxCell id="vQ33bp7E2cLdNLxbvYFG-13" value="Query Product Detail" style="edgeStyle=orthogonalEdgeStyle;rounded=0;orthogonalLoop=1;jettySize=auto;html=1;" edge="1" parent="1" source="vQ33bp7E2cLdNLxbvYFG-4" target="vQ33bp7E2cLdNLxbvYFG-7">
          <mxGeometry relative="1" as="geometry" />
        </mxCell>
        <mxCell id="vQ33bp7E2cLdNLxbvYFG-14" style="edgeStyle=orthogonalEdgeStyle;rounded=0;orthogonalLoop=1;jettySize=auto;html=1;" edge="1" parent="1" source="vQ33bp7E2cLdNLxbvYFG-4" target="vQ33bp7E2cLdNLxbvYFG-6">
          <mxGeometry relative="1" as="geometry" />
        </mxCell>
        <mxCell id="vQ33bp7E2cLdNLxbvYFG-15" value="Query Payment Method + Payment Provider" style="edgeStyle=orthogonalEdgeStyle;rounded=0;orthogonalLoop=1;jettySize=auto;html=1;entryX=0.5;entryY=1;entryDx=0;entryDy=0;entryPerimeter=0;" edge="1" parent="1" source="vQ33bp7E2cLdNLxbvYFG-4" target="vQ33bp7E2cLdNLxbvYFG-8">
          <mxGeometry relative="1" as="geometry">
            <mxPoint x="400" y="110" as="targetPoint" />
          </mxGeometry>
        </mxCell>
        <mxCell id="vQ33bp7E2cLdNLxbvYFG-17" style="edgeStyle=orthogonalEdgeStyle;rounded=0;orthogonalLoop=1;jettySize=auto;html=1;startArrow=none;startFill=0;" edge="1" parent="1" source="vQ33bp7E2cLdNLxbvYFG-4" target="vQ33bp7E2cLdNLxbvYFG-16">
          <mxGeometry relative="1" as="geometry" />
        </mxCell>
        <mxCell id="vQ33bp7E2cLdNLxbvYFG-19" value="Product Detail + Price &lt;br&gt;(fee &amp;amp; discount) + Payment Method" style="edgeLabel;html=1;align=center;verticalAlign=middle;resizable=0;points=[];" vertex="1" connectable="0" parent="vQ33bp7E2cLdNLxbvYFG-17">
          <mxGeometry x="-0.0621" relative="1" as="geometry">
            <mxPoint as="offset" />
          </mxGeometry>
        </mxCell>
        <mxCell id="vQ33bp7E2cLdNLxbvYFG-4" value="Payment Gateway Service" style="ellipse;whiteSpace=wrap;html=1;" vertex="1" parent="1">
          <mxGeometry x="350" y="165" width="100" height="70" as="geometry" />
        </mxCell>
        <mxCell id="vQ33bp7E2cLdNLxbvYFG-5" value="Flight Service" style="ellipse;whiteSpace=wrap;html=1;" vertex="1" parent="1">
          <mxGeometry x="250" y="310" width="100" height="70" as="geometry" />
        </mxCell>
        <mxCell id="vQ33bp7E2cLdNLxbvYFG-6" value="Tour Service" style="ellipse;whiteSpace=wrap;html=1;" vertex="1" parent="1">
          <mxGeometry x="450" y="310" width="100" height="70" as="geometry" />
        </mxCell>
        <mxCell id="vQ33bp7E2cLdNLxbvYFG-7" value="Hotel Service" style="ellipse;whiteSpace=wrap;html=1;" vertex="1" parent="1">
          <mxGeometry x="350" y="380" width="100" height="70" as="geometry" />
        </mxCell>
        <mxCell id="vQ33bp7E2cLdNLxbvYFG-8" value="DB" style="shape=cylinder3;whiteSpace=wrap;html=1;boundedLbl=1;backgroundOutline=1;size=15;" vertex="1" parent="1">
          <mxGeometry x="370" y="20" width="60" height="80" as="geometry" />
        </mxCell>
        <mxCell id="vQ33bp7E2cLdNLxbvYFG-16" value="Actor" style="shape=umlActor;verticalLabelPosition=bottom;verticalAlign=top;html=1;outlineConnect=0;" vertex="1" parent="1">
          <mxGeometry x="740" y="170" width="30" height="60" as="geometry" />
        </mxCell>
        <mxCell id="vQ33bp7E2cLdNLxbvYFG-20" style="edgeStyle=orthogonalEdgeStyle;rounded=0;orthogonalLoop=1;jettySize=auto;html=1;entryX=0;entryY=0.5;entryDx=0;entryDy=0;" edge="1" parent="1" source="vQ33bp7E2cLdNLxbvYFG-21" target="vQ33bp7E2cLdNLxbvYFG-28">
          <mxGeometry relative="1" as="geometry">
            <mxPoint x="90" y="790" as="targetPoint" />
          </mxGeometry>
        </mxCell>
        <mxCell id="vQ33bp7E2cLdNLxbvYFG-21" value="Actor" style="shape=umlActor;verticalLabelPosition=bottom;verticalAlign=top;html=1;outlineConnect=0;" vertex="1" parent="1">
          <mxGeometry x="30" y="760" width="30" height="60" as="geometry" />
        </mxCell>
        <mxCell id="vQ33bp7E2cLdNLxbvYFG-22" style="edgeStyle=orthogonalEdgeStyle;rounded=0;orthogonalLoop=1;jettySize=auto;html=1;entryX=0.537;entryY=-0.049;entryDx=0;entryDy=0;entryPerimeter=0;" edge="1" parent="1" source="vQ33bp7E2cLdNLxbvYFG-28" target="vQ33bp7E2cLdNLxbvYFG-29">
          <mxGeometry relative="1" as="geometry">
            <mxPoint x="320" y="890" as="targetPoint" />
          </mxGeometry>
        </mxCell>
        <mxCell id="vQ33bp7E2cLdNLxbvYFG-23" value="Query Product Detail" style="edgeStyle=orthogonalEdgeStyle;rounded=0;orthogonalLoop=1;jettySize=auto;html=1;" edge="1" parent="1" source="vQ33bp7E2cLdNLxbvYFG-28" target="vQ33bp7E2cLdNLxbvYFG-31">
          <mxGeometry relative="1" as="geometry" />
        </mxCell>
        <mxCell id="vQ33bp7E2cLdNLxbvYFG-24" style="edgeStyle=orthogonalEdgeStyle;rounded=0;orthogonalLoop=1;jettySize=auto;html=1;" edge="1" parent="1" source="vQ33bp7E2cLdNLxbvYFG-28" target="vQ33bp7E2cLdNLxbvYFG-30">
          <mxGeometry relative="1" as="geometry" />
        </mxCell>
        <mxCell id="vQ33bp7E2cLdNLxbvYFG-25" value="Query Payment Method + Payment Provider" style="edgeStyle=orthogonalEdgeStyle;rounded=0;orthogonalLoop=1;jettySize=auto;html=1;entryX=0.5;entryY=1;entryDx=0;entryDy=0;entryPerimeter=0;" edge="1" parent="1" source="vQ33bp7E2cLdNLxbvYFG-28" target="vQ33bp7E2cLdNLxbvYFG-32">
          <mxGeometry relative="1" as="geometry">
            <mxPoint x="390" y="700" as="targetPoint" />
          </mxGeometry>
        </mxCell>
        <mxCell id="vQ33bp7E2cLdNLxbvYFG-26" style="edgeStyle=orthogonalEdgeStyle;rounded=0;orthogonalLoop=1;jettySize=auto;html=1;startArrow=none;startFill=0;entryX=0.5;entryY=0;entryDx=0;entryDy=0;" edge="1" parent="1" source="vQ33bp7E2cLdNLxbvYFG-28" target="vQ33bp7E2cLdNLxbvYFG-37">
          <mxGeometry relative="1" as="geometry">
            <mxPoint x="730" y="790" as="targetPoint" />
          </mxGeometry>
        </mxCell>
        <mxCell id="vQ33bp7E2cLdNLxbvYFG-40" style="edgeStyle=orthogonalEdgeStyle;rounded=0;orthogonalLoop=1;jettySize=auto;html=1;entryX=0.5;entryY=0;entryDx=0;entryDy=0;fontSize=16;startArrow=none;startFill=0;" edge="1" parent="1" source="vQ33bp7E2cLdNLxbvYFG-28" target="vQ33bp7E2cLdNLxbvYFG-39">
          <mxGeometry relative="1" as="geometry" />
        </mxCell>
        <mxCell id="vQ33bp7E2cLdNLxbvYFG-41" style="edgeStyle=orthogonalEdgeStyle;rounded=0;orthogonalLoop=1;jettySize=auto;html=1;fontSize=16;startArrow=none;startFill=0;" edge="1" parent="1" source="vQ33bp7E2cLdNLxbvYFG-28" target="vQ33bp7E2cLdNLxbvYFG-38">
          <mxGeometry relative="1" as="geometry" />
        </mxCell>
        <mxCell id="vQ33bp7E2cLdNLxbvYFG-43" style="edgeStyle=orthogonalEdgeStyle;rounded=0;orthogonalLoop=1;jettySize=auto;html=1;fontSize=16;startArrow=none;startFill=0;" edge="1" parent="1" source="vQ33bp7E2cLdNLxbvYFG-28" target="vQ33bp7E2cLdNLxbvYFG-42">
          <mxGeometry relative="1" as="geometry" />
        </mxCell>
        <mxCell id="vQ33bp7E2cLdNLxbvYFG-46" value="Response" style="edgeLabel;html=1;align=center;verticalAlign=middle;resizable=0;points=[];fontSize=16;" vertex="1" connectable="0" parent="vQ33bp7E2cLdNLxbvYFG-43">
          <mxGeometry x="0.7853" y="3" relative="1" as="geometry">
            <mxPoint as="offset" />
          </mxGeometry>
        </mxCell>
        <mxCell id="vQ33bp7E2cLdNLxbvYFG-47" value="Call Payment Provider" style="edgeLabel;html=1;align=center;verticalAlign=middle;resizable=0;points=[];fontSize=16;" vertex="1" connectable="0" parent="vQ33bp7E2cLdNLxbvYFG-43">
          <mxGeometry x="0.0638" y="-3" relative="1" as="geometry">
            <mxPoint as="offset" />
          </mxGeometry>
        </mxCell>
        <mxCell id="vQ33bp7E2cLdNLxbvYFG-28" value="Payment Gateway Service" style="ellipse;whiteSpace=wrap;html=1;" vertex="1" parent="1">
          <mxGeometry x="340" y="755" width="100" height="70" as="geometry" />
        </mxCell>
        <mxCell id="vQ33bp7E2cLdNLxbvYFG-29" value="Flight Service" style="ellipse;whiteSpace=wrap;html=1;" vertex="1" parent="1">
          <mxGeometry x="240" y="900" width="100" height="70" as="geometry" />
        </mxCell>
        <mxCell id="vQ33bp7E2cLdNLxbvYFG-30" value="Tour Service" style="ellipse;whiteSpace=wrap;html=1;" vertex="1" parent="1">
          <mxGeometry x="440" y="900" width="100" height="70" as="geometry" />
        </mxCell>
        <mxCell id="vQ33bp7E2cLdNLxbvYFG-31" value="Hotel Service" style="ellipse;whiteSpace=wrap;html=1;" vertex="1" parent="1">
          <mxGeometry x="340" y="970" width="100" height="70" as="geometry" />
        </mxCell>
        <mxCell id="vQ33bp7E2cLdNLxbvYFG-32" value="DB" style="shape=cylinder3;whiteSpace=wrap;html=1;boundedLbl=1;backgroundOutline=1;size=15;" vertex="1" parent="1">
          <mxGeometry x="360" y="610" width="60" height="80" as="geometry" />
        </mxCell>
        <mxCell id="vQ33bp7E2cLdNLxbvYFG-34" value="&lt;span style=&quot;font-size: 16px;&quot;&gt;Inquiry&lt;/span&gt;" style="text;html=1;strokeColor=none;fillColor=none;align=center;verticalAlign=middle;whiteSpace=wrap;rounded=0;fontSize=16;fontStyle=5" vertex="1" parent="1">
          <mxGeometry x="370" y="-20" width="60" height="30" as="geometry" />
        </mxCell>
        <mxCell id="vQ33bp7E2cLdNLxbvYFG-35" value="&lt;b&gt;Settlement&lt;/b&gt;" style="text;html=1;strokeColor=none;fillColor=none;align=center;verticalAlign=middle;whiteSpace=wrap;rounded=0;fontSize=16;fontStyle=4" vertex="1" parent="1">
          <mxGeometry x="360" y="550" width="60" height="30" as="geometry" />
        </mxCell>
        <mxCell id="vQ33bp7E2cLdNLxbvYFG-36" value="" style="endArrow=none;dashed=1;html=1;dashPattern=1 3;strokeWidth=2;rounded=0;fontSize=16;" edge="1" parent="1">
          <mxGeometry width="50" height="50" relative="1" as="geometry">
            <mxPoint y="520" as="sourcePoint" />
            <mxPoint x="850" y="520" as="targetPoint" />
          </mxGeometry>
        </mxCell>
        <mxCell id="vQ33bp7E2cLdNLxbvYFG-37" value="Phillip" style="ellipse;whiteSpace=wrap;html=1;fontSize=16;" vertex="1" parent="1">
          <mxGeometry x="680" y="860" width="80" height="60" as="geometry" />
        </mxCell>
        <mxCell id="vQ33bp7E2cLdNLxbvYFG-38" value="Stripe" style="ellipse;whiteSpace=wrap;html=1;fontSize=16;" vertex="1" parent="1">
          <mxGeometry x="760" y="930" width="80" height="60" as="geometry" />
        </mxCell>
        <mxCell id="vQ33bp7E2cLdNLxbvYFG-39" value="ABA" style="ellipse;whiteSpace=wrap;html=1;fontSize=16;" vertex="1" parent="1">
          <mxGeometry x="610" y="930" width="80" height="60" as="geometry" />
        </mxCell>
        <mxCell id="vQ33bp7E2cLdNLxbvYFG-42" value="Actor" style="shape=umlActor;verticalLabelPosition=bottom;verticalAlign=top;html=1;outlineConnect=0;fontSize=16;" vertex="1" parent="1">
          <mxGeometry x="980" y="760" width="30" height="60" as="geometry" />
        </mxCell>
        <mxCell id="vQ33bp7E2cLdNLxbvYFG-44" value="- Mobile App&lt;br&gt;&lt;div&gt;- Mastercard&lt;/div&gt;&lt;div&gt;- VISA Card&lt;br&gt;&lt;/div&gt;" style="text;html=1;strokeColor=none;fillColor=none;align=left;verticalAlign=middle;whiteSpace=wrap;rounded=0;fontSize=16;" vertex="1" parent="1">
          <mxGeometry x="680" y="990" width="105" height="70" as="geometry" />
        </mxCell>
      </root>
    </mxGraphModel>
  </diagram>
</mxfile>
